<?xml version="1.0" standalone="no"?>
<!DOCTYPE svg PUBLIC "-//W3C//DTD SVG 20010904//EN"
 "http://www.w3.org/TR/2001/REC-SVG-20010904/DTD/svg10.dtd">
<svg version="1.0" xmlns="http://www.w3.org/2000/svg"
 width="512.000000pt" height="512.000000pt" viewBox="0 0 512.000000 512.000000"
 preserveAspectRatio="xMidYMid meet">

<g transform="translate(0.000000,512.000000) scale(0.100000,-0.100000)"
fill="#000000" stroke="none">
<path d="M1820 4528 c-455 -34 -871 -363 -1020 -806 -122 -363 -59 -790 182
-1237 70 -130 174 -297 230 -367 l30 -38 544 0 544 0 0 -73 c0 -97 -27 -153
-90 -184 l-44 -23 -723 0 -722 0 -3 351 -3 351 -33 29 c-31 27 -37 29 -120 28
-59 0 -80 -3 -66 -9 56 -22 54 1 54 -713 0 -430 -4 -665 -10 -677 -6 -11 -23
-26 -38 -34 -26 -14 -22 -15 60 -16 83 0 89 2 120 29 l33 29 3 216 3 216 446
0 445 0 138 -133 c326 -316 741 -657 1014 -836 69 -45 85 -51 130 -51 64 0 77
7 260 138 534 383 1039 853 1371 1277 262 334 469 740 529 1035 66 327 37 586
-94 850 -163 325 -469 560 -830 635 -114 24 -339 22 -468 -5 -245 -50 -438
-157 -627 -349 -92 -93 -103 -101 -138 -101 -36 0 -47 8 -145 108 -267 270
-583 388 -962 360z m740 -796 c15 -12 38 -71 80 -207 l58 -190 354 -5 c380 -5
379 -5 399 -57 10 -28 -7 -80 -31 -93 -11 -6 -177 -10 -418 -10 l-399 0 -20
23 c-12 12 -31 59 -44 105 -13 45 -26 82 -29 82 -3 0 -61 -188 -130 -417 -90
-300 -131 -424 -147 -440 -30 -31 -82 -31 -110 0 -14 14 -61 153 -139 410
l-118 387 -361 0 c-351 0 -363 1 -389 21 -33 26 -37 88 -6 119 19 19 33 20
434 20 380 0 415 -1 434 -17 15 -13 47 -104 110 -312 l89 -295 17 55 c142 482
247 805 266 821 28 23 72 23 100 0z m220 -1187 c16 -8 34 -24 40 -34 6 -13 10
-246 10 -679 l0 -659 -24 -26 c-45 -48 -121 -47 -158 4 -18 24 -19 55 -23 674
-2 404 0 658 6 674 21 57 88 77 149 46z m366 -180 c63 -26 64 -31 64 -529 0
-253 -4 -455 -9 -469 -28 -72 -118 -92 -172 -38 l-29 29 0 477 c0 306 4 483
10 495 12 22 57 49 83 50 10 0 33 -7 53 -15z"/>
<path d="M157 2360 c17 -10 37 -28 42 -39 7 -13 11 -177 11 -492 l0 -472 -37
-34 -37 -35 88 3 c84 4 89 5 117 37 l29 32 0 476 c0 523 1 511 -62 533 -17 6
-65 11 -107 11 l-76 0 32 -20z"/>
</g>
</svg>
